STARTFONT 2.1
COMMENT The X10 name for this font was "timrom12"
FONT timrom12.bdf
SIZE 11 75 75
FONTBOUNDINGBOX 16 14 0 0
STARTPROPERTIES 2
FONT_DESCENT 3
FONT_ASCENT 11
ENDPROPERTIES
CHARS 126
STARTCHAR C001
ENCODING 1
SWIDTH 1 0
DWIDTH 8 0
BBX 8 14 0 -3
BITMAP
11
0a
04
00
00
00
00
00
00
00
00
00
00
00
ENDCHAR
STARTCHAR C002
ENCODING 2
SWIDTH 1 0
DWIDTH 7 0
BBX 7 14 0 -3
BITMAP
00
10
10
00
10
10
20
40
44
44
38
00
00
00
ENDCHAR
STARTCHAR C003
ENCODING 3
SWIDTH 1 0
DWIDTH 7 0
BBX 7 14 0 -3
BITMAP
00
00
00
00
3c
44
40
40
40
44
38
10
08
30
ENDCHAR
STARTCHAR C004
ENCODING 4
SWIDTH 1 0
DWIDTH 7 0
BBX 7 14 0 -3
BITMAP
12
12
00
00
00
00
00
00
00
00
00
00
00
00
ENDCHAR
STARTCHAR C005
ENCODING 5
SWIDTH 1 0
DWIDTH 7 0
BBX 7 14 0 -3
BITMAP
08
04
02
00
00
00
00
00
00
00
00
00
00
00
ENDCHAR
STARTCHAR C006
ENCODING 6
SWIDTH 1 0
DWIDTH 11 0
BBX 11 14 0 -3
BITMAP
0000
1dc0
2220
2200
7f80
2200
2200
2200
2200
2200
7700
0000
0000
0000
ENDCHAR
STARTCHAR C007
ENCODING 7
SWIDTH 1 0
DWIDTH 4 0
BBX 4 14 0 -3
BITMAP
00
20
40
60
00
00
00
00
00
00
00
00
00
00
ENDCHAR
STARTCHAR C010
ENCODING 8
SWIDTH 1 0
DWIDTH 3 0
BBX 3 14 0 -3
BITMAP
00
40
40
00
40
40
40
40
40
40
40
00
00
00
ENDCHAR
STARTCHAR C011
ENCODING 9
SWIDTH 1 0
DWIDTH 0 0
BBX 0 14 0 -3
BITMAP
0
0
0
0
0
0
0
0
0
0
0
0
0
0
ENDCHAR
STARTCHAR C012
ENCODING 10
SWIDTH 1 0
DWIDTH 0 0
BBX 0 14 0 -3
BITMAP
0
0
0
0
0
0
0
0
0
0
0
0
0
0
ENDCHAR
STARTCHAR C013
ENCODING 11
SWIDTH 1 0
DWIDTH 6 0
BBX 6 14 0 -3
BITMAP
04
08
10
00
00
00
00
00
00
00
00
00
00
00
ENDCHAR
STARTCHAR C014
ENCODING 12
SWIDTH 1 0
DWIDTH 0 0
BBX 0 14 0 -3
BITMAP
0
0
0
0
0
0
0
0
0
0
0
0
0
0
ENDCHAR
STARTCHAR C015
ENCODING 13
SWIDTH 1 0
DWIDTH 0 0
BBX 0 14 0 -3
BITMAP
0
0
0
0
0
0
0
0
0
0
0
0
0
0
ENDCHAR
STARTCHAR C016
ENCODING 14
SWIDTH 1 0
DWIDTH 7 0
BBX 7 14 0 -3
BITMAP
00
1e
00
00
00
00
00
00
00
00
00
00
00
00
ENDCHAR
STARTCHAR C017
ENCODING 15
SWIDTH 1 0
DWIDTH 16 0
BBX 16 14 0 -3
BITMAP
0000
0000
0000
0000
0000
0000
0000
0000
0000
0000
0000
0000
0000
0000
ENDCHAR
STARTCHAR C020
ENCODING 16
SWIDTH 1 0
DWIDTH 8 0
BBX 8 14 0 -3
BITMAP
19
26
00
00
00
00
00
00
00
00
00
00
00
00
ENDCHAR
STARTCHAR C021
ENCODING 17
SWIDTH 1 0
DWIDTH 13 0
BBX 13 14 0 -3
BITMAP
0000
19a0
2220
2200
7fe0
2220
2220
2220
2220
2220
7770
0000
0000
0000
ENDCHAR
STARTCHAR C022
ENCODING 18
SWIDTH 1 0
DWIDTH 13 0
BBX 13 14 0 -3
BITMAP
19e0
2220
2220
7fe0
2220
2220
2220
2220
2220
2220
7ff0
0000
0000
0000
ENDCHAR
STARTCHAR C023
ENCODING 19
SWIDTH 1 0
DWIDTH 16 0
BBX 16 14 0 -3
BITMAP
0000
0000
0000
0000
0000
0000
ffff
0000
0000
0000
0000
0000
0000
0000
ENDCHAR
STARTCHAR C024
ENCODING 20
SWIDTH 1 0
DWIDTH 9 0
BBX 9 14 0 -3
BITMAP
0000
1a00
2200
2000
7e00
2200
2200
2200
2200
2200
7700
0000
0000
0000
ENDCHAR
STARTCHAR C025
ENCODING 21
SWIDTH 1 0
DWIDTH 9 0
BBX 9 14 0 -3
BITMAP
1e00
2200
2200
7e00
2200
2200
2200
2200
2200
2200
7700
0000
0000
0000
ENDCHAR
STARTCHAR C026
ENCODING 22
SWIDTH 1 0
DWIDTH 8 0
BBX 8 14 0 -3
BITMAP
00
00
00
00
00
00
ff
00
00
00
00
00
00
00
ENDCHAR
STARTCHAR C027
ENCODING 23
SWIDTH 1 0
DWIDTH 8 0
BBX 8 14 0 -3
BITMAP
11
0e
00
00
00
00
00
00
00
00
00
00
00
00
ENDCHAR
STARTCHAR C030
ENCODING 24
SWIDTH 1 0
DWIDTH 16 0
BBX 16 14 0 -3
BITMAP
0000
0000
0000
0000
0000
0000
0ff0
0000
0000
0000
0000
0000
0000
0000
ENDCHAR
STARTCHAR C031
ENCODING 25
SWIDTH 1 0
DWIDTH 8 0
BBX 8 14 0 -3
BITMAP
00
00
00
00
00
00
00
00
00
00
00
00
00
00
ENDCHAR
STARTCHAR C032
ENCODING 26
SWIDTH 1 0
DWIDTH 0 0
BBX 0 14 0 -3
BITMAP
0
0
0
0
0
0
0
0
0
0
0
0
0
0
ENDCHAR
STARTCHAR C033
ENCODING 27
SWIDTH 1 0
DWIDTH 0 0
BBX 0 14 0 -3
BITMAP
0
0
0
0
0
0
0
0
0
0
0
0
0
0
ENDCHAR
STARTCHAR C034
ENCODING 28
SWIDTH 1 0
DWIDTH 8 0
BBX 8 14 0 -3
BITMAP
00
00
00
00
00
00
00
00
00
00
00
00
00
00
ENDCHAR
STARTCHAR C035
ENCODING 29
SWIDTH 1 0
DWIDTH 6 0
BBX 6 14 0 -3
BITMAP
00
00
00
00
00
00
00
00
00
00
00
00
04
04
ENDCHAR
STARTCHAR C036
ENCODING 30
SWIDTH 1 0
DWIDTH 8 0
BBX 8 14 0 -3
BITMAP
19
26
00
00
00
00
00
00
00
00
00
00
00
00
ENDCHAR
STARTCHAR C037
ENCODING 31
SWIDTH 1 0
DWIDTH 7 0
BBX 7 14 0 -3
BITMAP
0c
12
0c
00
00
00
00
00
00
00
00
00
00
00
ENDCHAR
STARTCHAR C040
ENCODING 32
SWIDTH 1 0
DWIDTH 6 0
BBX 6 14 0 -3
BITMAP
00
00
00
00
00
00
00
00
00
00
00
00
00
00
ENDCHAR
STARTCHAR !
ENCODING 33
SWIDTH 1 0
DWIDTH 3 0
BBX 3 14 0 -3
BITMAP
00
40
40
40
40
40
40
40
00
40
40
00
00
00
ENDCHAR
STARTCHAR "
ENCODING 34
SWIDTH 1 0
DWIDTH 5 0
BBX 5 14 0 -3
BITMAP
00
50
50
50
50
00
00
00
00
00
00
00
00
00
ENDCHAR
STARTCHAR #
ENCODING 35
SWIDTH 1 0
DWIDTH 11 0
BBX 11 14 0 -3
BITMAP
0000
0480
0480
3fc0
0900
0900
1200
1200
7f80
2400
2400
0000
0000
0000
ENDCHAR
STARTCHAR $
ENCODING 36
SWIDTH 1 0
DWIDTH 7 0
BBX 7 14 0 -3
BITMAP
10
38
54
50
50
30
18
14
14
54
38
10
00
00
ENDCHAR
STARTCHAR %
ENCODING 37
SWIDTH 1 0
DWIDTH 13 0
BBX 13 14 0 -3
BITMAP
0000
1980
2680
4500
4500
4a60
3290
0510
0510
0920
08c0
0000
0000
0000
ENDCHAR
STARTCHAR &
ENCODING 38
SWIDTH 1 0
DWIDTH 11 0
BBX 11 14 0 -3
BITMAP
0000
0c00
1200
1200
0c00
19c0
2880
4500
4200
4300
3cc0
0000
0000
0000
ENDCHAR
STARTCHAR '
ENCODING 39
SWIDTH 1 0
DWIDTH 4 0
BBX 4 14 0 -3
BITMAP
00
60
20
40
00
00
00
00
00
00
00
00
00
00
ENDCHAR
STARTCHAR (
ENCODING 40
SWIDTH 1 0
DWIDTH 6 0
BBX 6 14 0 -3
BITMAP
00
08
10
20
20
40
40
40
40
40
20
20
10
08
ENDCHAR
STARTCHAR )
ENCODING 41
SWIDTH 1 0
DWIDTH 6 0
BBX 6 14 0 -3
BITMAP
00
40
20
10
10
08
08
08
08
08
10
10
20
40
ENDCHAR
STARTCHAR *
ENCODING 42
SWIDTH 1 0
DWIDTH 6 0
BBX 6 14 0 -3
BITMAP
10
54
38
54
10
00
00
00
00
00
00
00
00
00
ENDCHAR
STARTCHAR +
ENCODING 43
SWIDTH 1 0
DWIDTH 9 0
BBX 9 14 0 -3
BITMAP
0000
0000
0000
0800
0800
0800
7f00
0800
0800
0800
0000
0000
0000
0000
ENDCHAR
STARTCHAR ,
ENCODING 44
SWIDTH 1 0
DWIDTH 4 0
BBX 4 14 0 -3
BITMAP
00
00
00
00
00
00
00
00
00
60
20
20
40
00
ENDCHAR
STARTCHAR -
ENCODING 45
SWIDTH 1 0
DWIDTH 7 0
BBX 7 14 0 -3
BITMAP
00
00
00
00
00
00
7c
00
00
00
00
00
00
00
ENDCHAR
STARTCHAR .
ENCODING 46
SWIDTH 1 0
DWIDTH 3 0
BBX 3 14 0 -3
BITMAP
00
00
00
00
00
00
00
00
00
40
40
00
00
00
ENDCHAR
STARTCHAR /
ENCODING 47
SWIDTH 1 0
DWIDTH 8 0
BBX 8 14 0 -3
BITMAP
00
02
02
04
04
08
08
10
10
20
20
00
00
00
ENDCHAR
STARTCHAR 0
ENCODING 48
SWIDTH 1 0
DWIDTH 8 0
BBX 8 14 0 -3
BITMAP
00
18
24
24
42
42
42
42
24
24
18
00
00
00
ENDCHAR
STARTCHAR 1
ENCODING 49
SWIDTH 1 0
DWIDTH 8 0
BBX 8 14 0 -3
BITMAP
00
08
18
28
08
08
08
08
08
08
1c
00
00
00
ENDCHAR
STARTCHAR 2
ENCODING 50
SWIDTH 1 0
DWIDTH 8 0
BBX 8 14 0 -3
BITMAP
00
38
44
44
04
04
08
08
10
22
7c
00
00
00
ENDCHAR
STARTCHAR 3
ENCODING 51
SWIDTH 1 0
DWIDTH 8 0
BBX 8 14 0 -3
BITMAP
00
18
24
04
08
1c
02
02
02
44
38
00
00
00
ENDCHAR
STARTCHAR 4
ENCODING 52
SWIDTH 1 0
DWIDTH 8 0
BBX 8 14 0 -3
BITMAP
00
0c
0c
14
14
24
24
44
7e
04
04
00
00
00
ENDCHAR
STARTCHAR 5
ENCODING 53
SWIDTH 1 0
DWIDTH 8 0
BBX 8 14 0 -3
BITMAP
00
1c
20
20
78
04
02
02
02
44
38
00
00
00
ENDCHAR
STARTCHAR 6
ENCODING 54
SWIDTH 1 0
DWIDTH 8 0
BBX 8 14 0 -3
BITMAP
00
0c
10
20
38
44
42
42
42
24
18
00
00
00
ENDCHAR
STARTCHAR 7
ENCODING 55
SWIDTH 1 0
DWIDTH 8 0
BBX 8 14 0 -3
BITMAP
00
3e
42
02
04
04
08
08
08
10
10
00
00
00
ENDCHAR
STARTCHAR 8
ENCODING 56
SWIDTH 1 0
DWIDTH 8 0
BBX 8 14 0 -3
BITMAP
00
18
24
24
24
18
24
42
42
42
3c
00
00
00
ENDCHAR
STARTCHAR 9
ENCODING 57
SWIDTH 1 0
DWIDTH 8 0
BBX 8 14 0 -3
BITMAP
00
18
24
42
42
42
26
1a
02
04
38
00
00
00
ENDCHAR
STARTCHAR :
ENCODING 58
SWIDTH 1 0
DWIDTH 3 0
BBX 3 14 0 -3
BITMAP
00
00
00
00
40
40
00
00
00
40
40
00
00
00
ENDCHAR
STARTCHAR ;
ENCODING 59
SWIDTH 1 0
DWIDTH 4 0
BBX 4 14 0 -3
BITMAP
00
00
00
00
20
20
00
00
00
60
20
20
40
00
ENDCHAR
STARTCHAR <
ENCODING 60
SWIDTH 1 0
DWIDTH 7 0
BBX 7 14 0 -3
BITMAP
00
04
08
10
20
40
40
20
10
08
04
00
00
00
ENDCHAR
STARTCHAR =
ENCODING 61
SWIDTH 1 0
DWIDTH 7 0
BBX 7 14 0 -3
BITMAP
00
00
00
00
00
00
7c
00
7c
00
00
00
00
00
ENDCHAR
STARTCHAR >
ENCODING 62
SWIDTH 1 0
DWIDTH 7 0
BBX 7 14 0 -3
BITMAP
00
40
20
10
08
04
04
08
10
20
40
00
00
00
ENDCHAR
STARTCHAR ?
ENCODING 63
SWIDTH 1 0
DWIDTH 7 0
BBX 7 14 0 -3
BITMAP
00
38
44
64
04
08
10
10
00
10
10
00
00
00
ENDCHAR
STARTCHAR @
ENCODING 64
SWIDTH 1 0
DWIDTH 14 0
BBX 14 14 0 -3
BITMAP
07c0
1820
2010
2348
44c8
4848
4888
4890
2760
2000
1810
07e0
0000
0000
ENDCHAR
STARTCHAR A
ENCODING 65
SWIDTH 1 0
DWIDTH 11 0
BBX 11 14 0 -3
BITMAP
0000
0400
0400
0a00
0a00
1100
1100
1f00
2080
2080
71c0
0000
0000
0000
ENDCHAR
STARTCHAR B
ENCODING 66
SWIDTH 1 0
DWIDTH 9 0
BBX 9 14 0 -3
BITMAP
0000
7c00
2200
2200
2200
3c00
2200
2100
2100
2100
7e00
0000
0000
0000
ENDCHAR
STARTCHAR C
ENCODING 67
SWIDTH 1 0
DWIDTH 10 0
BBX 10 14 0 -3
BITMAP
0000
0e80
3180
2080
4000
4000
4000
4000
2080
3080
0f00
0000
0000
0000
ENDCHAR
STARTCHAR D
ENCODING 68
SWIDTH 1 0
DWIDTH 11 0
BBX 11 14 0 -3
BITMAP
0000
7e00
2180
2080
2040
2040
2040
2040
2080
2180
7e00
0000
0000
0000
ENDCHAR
STARTCHAR E
ENCODING 69
SWIDTH 1 0
DWIDTH 10 0
BBX 10 14 0 -3
BITMAP
0000
7f00
2100
2100
2400
3c00
2400
2000
2080
2080
7f80
0000
0000
0000
ENDCHAR
STARTCHAR F
ENCODING 70
SWIDTH 1 0
DWIDTH 9 0
BBX 9 14 0 -3
BITMAP
0000
7f00
2100
2100
2400
3c00
2400
2000
2000
2000
7800
0000
0000
0000
ENDCHAR
STARTCHAR G
ENCODING 71
SWIDTH 1 0
DWIDTH 12 0
BBX 12 14 0 -3
BITMAP
0000
0f40
30c0
2040
4000
4000
41e0
4040
2040
30c0
0f80
0000
0000
0000
ENDCHAR
STARTCHAR H
ENCODING 72
SWIDTH 1 0
DWIDTH 11 0
BBX 11 14 0 -3
BITMAP
0000
71c0
2080
2080
2080
3f80
2080
2080
2080
2080
71c0
0000
0000
0000
ENDCHAR
STARTCHAR I
ENCODING 73
SWIDTH 1 0
DWIDTH 5 0
BBX 5 14 0 -3
BITMAP
00
70
20
20
20
20
20
20
20
20
70
00
00
00
ENDCHAR
STARTCHAR J
ENCODING 74
SWIDTH 1 0
DWIDTH 7 0
BBX 7 14 0 -3
BITMAP
00
1c
08
08
08
08
08
08
48
48
30
00
00
00
ENDCHAR
STARTCHAR K
ENCODING 75
SWIDTH 1 0
DWIDTH 11 0
BBX 11 14 0 -3
BITMAP
0000
7780
2200
2400
2800
3800
2c00
2600
2300
2180
73c0
0000
0000
0000
ENDCHAR
STARTCHAR L
ENCODING 76
SWIDTH 1 0
DWIDTH 9 0
BBX 9 14 0 -3
BITMAP
0000
7000
2000
2000
2000
2000
2000
2000
2100
2100
7f00
0000
0000
0000
ENDCHAR
STARTCHAR M
ENCODING 77
SWIDTH 1 0
DWIDTH 13 0
BBX 13 14 0 -3
BITMAP
0000
7070
3060
28a0
28a0
28a0
2520
2520
2520
2220
7270
0000
0000
0000
ENDCHAR
STARTCHAR N
ENCODING 78
SWIDTH 1 0
DWIDTH 12 0
BBX 12 14 0 -3
BITMAP
0000
70e0
3040
2840
2c40
2440
2240
2340
2140
20c0
70c0
0000
0000
0000
ENDCHAR
STARTCHAR O
ENCODING 79
SWIDTH 1 0
DWIDTH 11 0
BBX 11 14 0 -3
BITMAP
0000
0e00
3180
2080
4040
4040
4040
4040
2080
3180
0e00
0000
0000
0000
ENDCHAR
STARTCHAR P
ENCODING 80
SWIDTH 1 0
DWIDTH 9 0
BBX 9 14 0 -3
BITMAP
0000
7e00
2100
2100
2100
2100
3e00
2000
2000
2000
7800
0000
0000
0000
ENDCHAR
STARTCHAR Q
ENCODING 81
SWIDTH 1 0
DWIDTH 11 0
BBX 11 14 0 -3
BITMAP
0000
0e00
3180
2080
4040
4040
4040
4040
2080
3180
0e00
0400
0200
0180
ENDCHAR
STARTCHAR R
ENCODING 82
SWIDTH 1 0
DWIDTH 10 0
BBX 10 14 0 -3
BITMAP
0000
7e00
2100
2100
2100
3e00
2400
2200
2200
2100
7180
0000
0000
0000
ENDCHAR
STARTCHAR S
ENCODING 83
SWIDTH 1 0
DWIDTH 8 0
BBX 8 14 0 -3
BITMAP
00
34
4c
44
20
18
04
42
42
62
5c
00
00
00
ENDCHAR
STARTCHAR T
ENCODING 84
SWIDTH 1 0
DWIDTH 11 0
BBX 11 14 0 -3
BITMAP
0000
7fc0
4440
4440
0400
0400
0400
0400
0400
0400
1f00
0000
0000
0000
ENDCHAR
STARTCHAR U
ENCODING 85
SWIDTH 1 0
DWIDTH 11 0
BBX 11 14 0 -3
BITMAP
0000
71c0
2080
2080
2080
2080
2080
2080
2080
3180
1f00
0000
0000
0000
ENDCHAR
STARTCHAR V
ENCODING 86
SWIDTH 1 0
DWIDTH 11 0
BBX 11 14 0 -3
BITMAP
0000
71c0
2080
2080
1100
1100
1100
0a00
0a00
0400
0400
0000
0000
0000
ENDCHAR
STARTCHAR W
ENCODING 87
SWIDTH 1 0
DWIDTH 14 0
BBX 14 14 0 -3
BITMAP
0000
7738
2210
2310
3110
1320
13a0
14a0
0cc0
0840
0840
0000
0000
0000
ENDCHAR
STARTCHAR X
ENCODING 88
SWIDTH 1 0
DWIDTH 11 0
BBX 11 14 0 -3
BITMAP
0000
71c0
2080
1100
0a00
0c00
0600
0a00
1100
2080
71c0
0000
0000
0000
ENDCHAR
STARTCHAR Y
ENCODING 89
SWIDTH 1 0
DWIDTH 11 0
BBX 11 14 0 -3
BITMAP
0000
71c0
2080
1100
1100
0a00
0400
0400
0400
0400
0e00
0000
0000
0000
ENDCHAR
STARTCHAR Z
ENCODING 90
SWIDTH 1 0
DWIDTH 9 0
BBX 9 14 0 -3
BITMAP
0000
7e00
4200
4200
0400
0800
1000
2000
4100
4100
7f00
0000
0000
0000
ENDCHAR
STARTCHAR [
ENCODING 91
SWIDTH 1 0
DWIDTH 6 0
BBX 6 14 0 -3
BITMAP
78
40
40
40
40
40
40
40
40
40
40
40
40
78
ENDCHAR
STARTCHAR \
ENCODING 92
SWIDTH 1 0
DWIDTH 7 0
BBX 7 14 0 -3
BITMAP
00
40
40
20
20
10
10
08
08
04
04
00
00
00
ENDCHAR
STARTCHAR ]
ENCODING 93
SWIDTH 1 0
DWIDTH 6 0
BBX 6 14 0 -3
BITMAP
78
08
08
08
08
08
08
08
08
08
08
08
08
78
ENDCHAR
STARTCHAR ^
ENCODING 94
SWIDTH 1 0
DWIDTH 9 0
BBX 9 14 0 -3
BITMAP
0000
0000
0000
0800
1c00
2a00
4900
0800
0800
0800
0000
0000
0000
0000
ENDCHAR
STARTCHAR _
ENCODING 95
SWIDTH 1 0
DWIDTH 9 0
BBX 9 14 0 -3
BITMAP
0000
0000
0000
0800
1000
2000
7f00
2000
1000
0800
0000
0000
0000
0000
ENDCHAR
STARTCHAR `
ENCODING 96
SWIDTH 1 0
DWIDTH 4 0
BBX 4 14 0 -3
BITMAP
00
20
40
60
00
00
00
00
00
00
00
00
00
00
ENDCHAR
STARTCHAR a
ENCODING 97
SWIDTH 1 0
DWIDTH 7 0
BBX 7 14 0 -3
BITMAP
00
00
00
00
38
44
0c
34
44
4c
36
00
00
00
ENDCHAR
STARTCHAR b
ENCODING 98
SWIDTH 1 0
DWIDTH 9 0
BBX 9 14 0 -3
BITMAP
0000
6000
2000
2000
2c00
3200
2100
2100
2100
2200
1c00
0000
0000
0000
ENDCHAR
STARTCHAR c
ENCODING 99
SWIDTH 1 0
DWIDTH 8 0
BBX 8 14 0 -3
BITMAP
00
00
00
00
1c
22
40
40
40
22
1c
00
00
00
ENDCHAR
STARTCHAR d
ENCODING 100
SWIDTH 1 0
DWIDTH 8 0
BBX 8 14 0 -3
BITMAP
00
06
02
02
1a
26
42
42
42
26
1b
00
00
00
ENDCHAR
STARTCHAR e
ENCODING 101
SWIDTH 1 0
DWIDTH 8 0
BBX 8 14 0 -3
BITMAP
00
00
00
00
1c
22
42
7e
40
22
1c
00
00
00
ENDCHAR
STARTCHAR f
ENCODING 102
SWIDTH 1 0
DWIDTH 6 0
BBX 6 14 0 -3
BITMAP
00
18
24
20
70
20
20
20
20
20
70
00
00
00
ENDCHAR
STARTCHAR g
ENCODING 103
SWIDTH 1 0
DWIDTH 8 0
BBX 8 14 0 -3
BITMAP
00
00
00
00
1a
24
24
24
18
20
3c
42
42
3c
ENDCHAR
STARTCHAR h
ENCODING 104
SWIDTH 1 0
DWIDTH 9 0
BBX 9 14 0 -3
BITMAP
0000
6000
2000
2000
2c00
3200
2200
2200
2200
2200
7700
0000
0000
0000
ENDCHAR
STARTCHAR i
ENCODING 105
SWIDTH 1 0
DWIDTH 5 0
BBX 5 14 0 -3
BITMAP
00
20
20
00
60
20
20
20
20
20
70
00
00
00
ENDCHAR
STARTCHAR j
ENCODING 106
SWIDTH 1 0
DWIDTH 4 0
BBX 4 14 0 -3
BITMAP
00
20
20
00
60
20
20
20
20
20
20
20
a0
40
ENDCHAR
STARTCHAR k
ENCODING 107
SWIDTH 1 0
DWIDTH 8 0
BBX 8 14 0 -3
BITMAP
00
60
20
20
26
24
28
38
24
22
73
00
00
00
ENDCHAR
STARTCHAR l
ENCODING 108
SWIDTH 1 0
DWIDTH 5 0
BBX 5 14 0 -3
BITMAP
00
60
20
20
20
20
20
20
20
20
70
00
00
00
ENDCHAR
STARTCHAR m
ENCODING 109
SWIDTH 1 0
DWIDTH 13 0
BBX 13 14 0 -3
BITMAP
0000
0000
0000
0000
6cc0
3320
2220
2220
2220
2220
7770
0000
0000
0000
ENDCHAR
STARTCHAR n
ENCODING 110
SWIDTH 1 0
DWIDTH 9 0
BBX 9 14 0 -3
BITMAP
0000
0000
0000
0000
6c00
3200
2200
2200
2200
2200
7700
0000
0000
0000
ENDCHAR
STARTCHAR o
ENCODING 111
SWIDTH 1 0
DWIDTH 8 0
BBX 8 14 0 -3
BITMAP
00
00
00
00
18
24
42
42
42
24
18
00
00
00
ENDCHAR
STARTCHAR p
ENCODING 112
SWIDTH 1 0
DWIDTH 9 0
BBX 9 14 0 -3
BITMAP
0000
0000
0000
0000
6c00
3200
2100
2100
2100
3200
2c00
2000
2000
7000
ENDCHAR
STARTCHAR q
ENCODING 113
SWIDTH 1 0
DWIDTH 8 0
BBX 8 14 0 -3
BITMAP
00
00
00
00
1a
26
42
42
42
26
1a
02
02
07
ENDCHAR
STARTCHAR r
ENCODING 114
SWIDTH 1 0
DWIDTH 6 0
BBX 6 14 0 -3
BITMAP
00
00
00
00
78
28
20
20
20
20
70
00
00
00
ENDCHAR
STARTCHAR s
ENCODING 115
SWIDTH 1 0
DWIDTH 6 0
BBX 6 14 0 -3
BITMAP
00
00
00
00
30
48
40
30
08
48
30
00
00
00
ENDCHAR
STARTCHAR t
ENCODING 116
SWIDTH 1 0
DWIDTH 5 0
BBX 5 14 0 -3
BITMAP
00
00
20
20
70
20
20
20
20
28
10
00
00
00
ENDCHAR
STARTCHAR u
ENCODING 117
SWIDTH 1 0
DWIDTH 9 0
BBX 9 14 0 -3
BITMAP
0000
0000
0000
0000
6600
2200
2200
2200
2200
2600
1b00
0000
0000
0000
ENDCHAR
STARTCHAR v
ENCODING 118
SWIDTH 1 0
DWIDTH 8 0
BBX 8 14 0 -3
BITMAP
00
00
00
00
ee
44
44
28
28
10
10
00
00
00
ENDCHAR
STARTCHAR w
ENCODING 119
SWIDTH 1 0
DWIDTH 11 0
BBX 11 14 0 -3
BITMAP
0000
0000
0000
0000
eee0
4440
2480
2e80
2a80
1100
1100
0000
0000
0000
ENDCHAR
STARTCHAR x
ENCODING 120
SWIDTH 1 0
DWIDTH 9 0
BBX 9 14 0 -3
BITMAP
0000
0000
0000
0000
7700
2200
1c00
0800
1400
2200
7700
0000
0000
0000
ENDCHAR
STARTCHAR y
ENCODING 121
SWIDTH 1 0
DWIDTH 8 0
BBX 8 14 0 -3
BITMAP
00
00
00
00
e7
42
22
24
14
18
08
08
50
30
ENDCHAR
STARTCHAR z
ENCODING 122
SWIDTH 1 0
DWIDTH 7 0
BBX 7 14 0 -3
BITMAP
00
00
00
00
7c
44
08
10
20
44
7c
00
00
00
ENDCHAR
STARTCHAR {
ENCODING 123
SWIDTH 1 0
DWIDTH 7 0
BBX 7 14 0 -3
BITMAP
0c
10
10
10
10
10
60
10
10
10
10
10
10
0c
ENDCHAR
STARTCHAR |
ENCODING 124
SWIDTH 1 0
DWIDTH 3 0
BBX 3 14 0 -3
BITMAP
00
40
40
40
40
40
40
40
40
40
40
40
40
00
ENDCHAR
STARTCHAR }
ENCODING 125
SWIDTH 1 0
DWIDTH 7 0
BBX 7 14 0 -3
BITMAP
60
10
10
10
10
10
0c
10
10
10
10
10
10
60
ENDCHAR
STARTCHAR ~
ENCODING 126
SWIDTH 1 0
DWIDTH 9 0
BBX 9 14 0 -3
BITMAP
0000
0000
0000
0000
3100
4900
4600
0000
0000
0000
0000
0000
0000
0000
ENDCHAR
ENDFONT
